<?xml version="1.0" encoding="utf-8" ?>
<svg xmlns="http://www.w3.org/2000/svg" xmlns:xlink="http://www.w3.org/1999/xlink" width="1120" height="1120">
	<defs>
		<linearGradient id="gradient_0" gradientUnits="userSpaceOnUse" x1="411.45801" y1="527.54962" x2="628.81696" y2="554.68158">
			<stop offset="0" stop-color="#FF7172"/>
			<stop offset="1" stop-color="#C82DC4"/>
		</linearGradient>
	</defs>
	<path fill="url(#gradient_0)" d="M617.558 280.234C619.224 279.117 620.97 277.614 623.029 277.539C623.821 278.467 623.867 278.474 623.786 279.642C623.485 283.94 620.801 289.168 619.854 293.569C614.818 318.191 610.93 342.142 611.761 367.377C612.021 375.292 613.098 383.059 613.676 390.938C610.746 399.765 623.96 438.15 627.471 447.826C628.664 451.113 630.67 453.966 631.246 457.462L629.115 455.564L628.404 455.802C627.646 459.682 626.88 501.792 627.723 504.585C626.133 508 627.422 523.861 627.715 528.536C627.619 530.169 627.546 531.737 627.668 533.37C626.682 535.185 627.207 536.719 627.745 538.656L627.707 539.273C627.174 548.942 628.129 558.621 627.232 568.361C626.688 574.266 624.743 579.826 623.972 585.639C623.418 589.81 624.127 594.213 622.963 598.27L621.904 599.082C620.638 598.874 620.142 598.546 619.439 597.425C616.866 593.321 615.72 588.477 612.962 584.412L611.582 584.619C608.765 581.735 606.717 576.642 604.352 573.221C599.125 565.66 591.875 560.163 584.737 554.544C591.978 565.982 601.495 581.613 604.589 594.73C605.837 600.024 606.144 605.472 606.146 610.896C606.153 635.895 590.47 648.664 574.692 665.478C567.379 673.272 560.083 682.256 554.553 691.399C536.127 721.976 534.989 759.95 551.549 791.576C552.914 794.136 554.285 796.714 555.927 799.11C558.842 803.366 564.308 808.608 565.539 813.576L565.124 814.148C561.89 814.898 558.514 814.822 555.206 814.881C513.385 815.74 472.926 800.001 442.68 771.105C406.117 735.578 388.5 680.458 398.408 630.362C403.265 605.809 414.534 582.816 417.833 558.042C419.333 546.776 418.478 536.146 418.282 524.899C431.981 533.612 442.186 554.661 445.953 569.959C448.359 579.729 449.313 590.058 453.726 599.216C456.309 604.577 460.325 610.455 466.248 612.333C469.525 613.372 472.895 613.394 475.945 611.688C500.578 597.909 475.439 548.463 468.074 529.737C465.83 524.031 463.869 518.126 462.624 512.115C459.28 495.963 460.6 477.989 465 462.165C483.638 395.136 539.909 332.549 596.343 293.926C603.267 289.188 610.241 284.351 617.558 280.234Z"/>
	<path fill="#C04FC5" d="M617.558 280.234C619.224 279.117 620.97 277.614 623.029 277.539C623.821 278.467 623.867 278.474 623.786 279.642C623.485 283.94 620.801 289.168 619.854 293.569C618.366 292.368 615.985 290.114 615.648 288.138C615.37 286.508 616.028 284.539 616.772 283.126C617.216 282.282 617.456 281.901 617.556 280.903C617.578 280.681 617.557 280.457 617.558 280.234Z"/>
	<defs>
		<linearGradient id="gradient_1" gradientUnits="userSpaceOnUse" x1="593.07434" y1="632.53705" x2="721.14923" y2="647.63916">
			<stop offset="0" stop-color="#A717CB"/>
			<stop offset="1" stop-color="#5357F7"/>
		</linearGradient>
	</defs>
	<path fill="url(#gradient_1)" d="M613.676 390.938C616.784 410.968 622.08 430.596 629.469 449.471C640.946 479.219 656.459 509.026 661.315 540.83C663.902 557.772 663.241 574.383 660.924 591.279C659.677 600.375 649.425 617.828 654.297 625.869C655.409 626.64 656.01 626.943 657.402 626.701C663.891 625.567 669.538 616.594 672.657 611.358C686.032 588.901 689.51 558.444 683.119 533.198C681.17 525.498 678.097 518.13 675.062 510.808C698.674 524.859 711.938 552.333 718.559 578.141C731.698 629.354 720.393 685.851 693.519 730.768C673.822 764.232 643.846 790.439 608.051 805.489C602.026 807.985 595.691 810.639 589.358 812.167C585.069 813.202 578.056 814.569 574.137 812.138C572.685 811.237 571.796 809.801 571.532 808.131C570.297 800.331 577.52 791.277 582.013 785.553C590.729 774.45 599.652 763.87 606.321 751.336C620.572 724.551 624.491 695.328 625.712 665.462C626.192 653.727 626.462 642.14 625.054 630.45C623.096 614.191 619.24 599.194 611.582 584.619L612.962 584.412C615.72 588.477 616.866 593.321 619.439 597.425C620.142 598.546 620.638 598.874 621.904 599.082L622.963 598.27C624.127 594.213 623.418 589.81 623.972 585.639C624.743 579.826 626.688 574.266 627.232 568.361C628.129 558.621 627.174 548.942 627.707 539.273L627.745 538.656C627.207 536.719 626.682 535.185 627.668 533.37C627.546 531.737 627.619 530.169 627.715 528.536C627.422 523.861 626.133 508 627.723 504.585C626.88 501.792 627.646 459.682 628.404 455.802L629.115 455.564L631.246 457.462C630.67 453.966 628.664 451.113 627.471 447.826C623.96 438.15 610.746 399.765 613.676 390.938Z"/>
	<path fill="#C04FC5" d="M627.715 528.536C627.422 523.861 626.133 508 627.723 504.585C629.756 508.082 629.443 523.361 628.215 527.37C628.103 527.736 627.867 528.208 627.715 528.536Z"/>
	<path fill="#C04FC5" d="M627.668 533.37C628.595 534.54 628.427 535.844 628.567 537.306C628.319 537.795 628.144 538.273 627.745 538.656C627.207 536.719 626.682 535.185 627.668 533.37Z"/>
</svg>
